<svg width="1304" height="638" viewBox="0 0 1304 638" fill="none" xmlns="http://www.w3.org/2000/svg">
<rect width="1304" height="638" fill="#F2F2F7"/>
<rect x="284" y="327" width="736" height="143" rx="66.5" fill="#1F3C6A" fill-opacity="0.15"/>
<rect x="431" y="356" width="548" height="84" rx="42" fill="white"/>
<path d="M473.839 399.729C473.956 397.623 475.243 395.985 477.427 395.985C479.923 395.985 480.976 397.662 480.976 399.807V411H486.163V398.91C486.163 394.698 483.901 391.305 479.026 391.305C477.193 391.305 475.087 391.929 473.839 393.411V382.764H468.652V411H473.839V399.729ZM496.852 386.079H492.172V388.77C492.172 390.486 491.236 391.812 489.208 391.812H488.233V396.414H491.704V405.345C491.704 409.05 494.044 411.273 497.788 411.273C499.309 411.273 500.245 411 500.713 410.805V406.515C500.44 406.593 499.738 406.671 499.114 406.671C497.632 406.671 496.852 406.125 496.852 404.448V396.414H500.713V391.812H496.852V386.079ZM510.459 386.079H505.779V388.77C505.779 390.486 504.843 391.812 502.815 391.812H501.84V396.414H505.311V405.345C505.311 409.05 507.651 411.273 511.395 411.273C512.916 411.273 513.852 411 514.32 410.805V406.515C514.047 406.593 513.345 406.671 512.721 406.671C511.239 406.671 510.459 406.125 510.459 404.448V396.414H514.32V391.812H510.459V386.079ZM522.507 418.41V409.128C523.443 410.415 525.393 411.468 528.045 411.468C533.466 411.468 537.093 407.178 537.093 401.367C537.093 395.673 533.856 391.383 528.24 391.383C525.354 391.383 523.209 392.67 522.351 394.152V391.812H517.32V418.41H522.507ZM531.984 401.406C531.984 404.838 529.878 406.827 527.226 406.827C524.574 406.827 522.429 404.799 522.429 401.406C522.429 398.013 524.574 396.024 527.226 396.024C529.878 396.024 531.984 398.013 531.984 401.406ZM538.819 405.657C539.053 407.841 541.042 411.585 546.814 411.585C551.845 411.585 554.263 408.387 554.263 405.267C554.263 402.459 552.352 400.158 548.569 399.378L545.839 398.793C544.786 398.598 544.084 398.013 544.084 397.077C544.084 395.985 545.176 395.166 546.541 395.166C548.725 395.166 549.544 396.609 549.7 397.74L554.029 396.765C553.795 394.698 551.962 391.227 546.502 391.227C542.368 391.227 539.326 394.074 539.326 397.506C539.326 400.197 541.003 402.42 544.708 403.239L547.243 403.824C548.725 404.136 549.31 404.838 549.31 405.696C549.31 406.71 548.491 407.607 546.775 407.607C544.513 407.607 543.382 406.203 543.265 404.682L538.819 405.657ZM556.942 407.802C556.942 409.713 558.502 411.273 560.452 411.273C562.402 411.273 563.962 409.713 563.962 407.802C563.962 405.852 562.402 404.292 560.452 404.292C558.502 404.292 556.942 405.852 556.942 407.802ZM556.903 395.049C556.903 396.96 558.463 398.52 560.413 398.52C562.363 398.52 563.923 396.96 563.923 395.049C563.923 393.099 562.363 391.539 560.413 391.539C558.463 391.539 556.903 393.099 556.903 395.049ZM584.314 383.349H579.595L566.101 411H570.781L584.314 383.349ZM595.255 383.349H590.536L577.042 411H581.722L595.255 383.349ZM604.417 406.866C601.882 406.866 599.542 404.994 599.542 401.406C599.542 397.779 601.882 395.946 604.417 395.946C606.952 395.946 609.292 397.779 609.292 401.406C609.292 405.033 606.952 406.866 604.417 406.866ZM604.417 391.227C598.684 391.227 594.355 395.478 594.355 401.406C594.355 407.295 598.684 411.585 604.417 411.585C610.15 411.585 614.479 407.295 614.479 401.406C614.479 395.478 610.15 391.227 604.417 391.227ZM629.135 391.734C628.745 391.695 628.355 391.656 627.926 391.656C626.288 391.656 623.636 392.124 622.466 394.659V391.812H617.435V411H622.622V402.225C622.622 398.091 624.923 396.804 627.575 396.804C628.043 396.804 628.55 396.843 629.135 396.96V391.734ZM649.721 382.764H644.612V393.723C644.066 392.709 642.506 391.344 639.191 391.344C633.77 391.344 629.987 395.751 629.987 401.367C629.987 407.178 633.887 411.468 639.347 411.468C641.921 411.468 643.871 410.298 644.729 408.777C644.729 409.674 644.846 410.61 644.924 411H649.877C649.799 410.22 649.721 408.816 649.721 407.529V382.764ZM635.213 401.367C635.213 397.935 637.319 395.985 639.971 395.985C642.623 395.985 644.69 397.896 644.69 401.328C644.69 404.799 642.623 406.827 639.971 406.827C637.241 406.827 635.213 404.799 635.213 401.367ZM657.962 399.222C658.079 397.467 659.561 395.439 662.252 395.439C665.216 395.439 666.464 397.311 666.542 399.222H657.962ZM667.049 404.214C666.425 405.93 665.099 407.139 662.681 407.139C660.107 407.139 657.962 405.306 657.845 402.771H671.573C671.573 402.693 671.651 401.913 671.651 401.172C671.651 395.01 668.102 391.227 662.174 391.227C657.26 391.227 652.736 395.205 652.736 401.328C652.736 407.802 657.377 411.585 662.642 411.585C667.361 411.585 670.403 408.816 671.378 405.501L667.049 404.214ZM686.373 391.734C685.983 391.695 685.593 391.656 685.164 391.656C683.526 391.656 680.874 392.124 679.704 394.659V391.812H674.673V411H679.86V402.225C679.86 398.091 682.161 396.804 684.813 396.804C685.281 396.804 685.788 396.843 686.373 396.96V391.734ZM685.975 407.724C685.975 409.674 687.574 411.273 689.524 411.273C691.513 411.273 693.112 409.674 693.112 407.724C693.112 405.774 691.513 404.175 689.524 404.175C687.574 404.175 685.975 405.774 685.975 407.724ZM695.116 405.657C695.35 407.841 697.339 411.585 703.111 411.585C708.142 411.585 710.56 408.387 710.56 405.267C710.56 402.459 708.649 400.158 704.866 399.378L702.136 398.793C701.083 398.598 700.381 398.013 700.381 397.077C700.381 395.985 701.473 395.166 702.838 395.166C705.022 395.166 705.841 396.609 705.997 397.74L710.326 396.765C710.092 394.698 708.259 391.227 702.799 391.227C698.665 391.227 695.623 394.074 695.623 397.506C695.623 400.197 697.3 402.42 701.005 403.239L703.54 403.824C705.022 404.136 705.607 404.838 705.607 405.696C705.607 406.71 704.788 407.607 703.072 407.607C700.81 407.607 699.679 406.203 699.562 404.682L695.116 405.657ZM726.148 411H731.101C731.023 410.337 730.906 409.011 730.906 407.529V391.812H725.719V402.966C725.719 405.189 724.393 406.749 722.092 406.749C719.674 406.749 718.582 405.033 718.582 402.888V391.812H713.395V403.941C713.395 408.114 716.047 411.507 720.688 411.507C722.716 411.507 724.939 410.727 725.992 408.933C725.992 409.713 726.07 410.61 726.148 411ZM746.743 391.734C746.353 391.695 745.963 391.656 745.534 391.656C743.896 391.656 741.244 392.124 740.074 394.659V391.812H735.043V411H740.23V402.225C740.23 398.091 742.531 396.804 745.183 396.804C745.651 396.804 746.158 396.843 746.743 396.96V391.734ZM758.626 387.054C759.484 387.054 759.991 387.171 760.264 387.249V382.881C759.835 382.686 758.782 382.491 757.69 382.491C753.439 382.491 750.709 385.299 750.709 389.628V391.812H747.511V396.258H750.709V411H755.935V396.258H760.264V391.812H755.935V389.706C755.935 387.561 757.456 387.054 758.626 387.054ZM761.2 405.657C761.434 407.841 763.423 411.585 769.195 411.585C774.226 411.585 776.644 408.387 776.644 405.267C776.644 402.459 774.733 400.158 770.95 399.378L768.22 398.793C767.167 398.598 766.465 398.013 766.465 397.077C766.465 395.985 767.557 395.166 768.922 395.166C771.106 395.166 771.925 396.609 772.081 397.74L776.41 396.765C776.176 394.698 774.343 391.227 768.883 391.227C764.749 391.227 761.707 394.074 761.707 397.506C761.707 400.197 763.384 402.42 767.089 403.239L769.624 403.824C771.106 404.136 771.691 404.838 771.691 405.696C771.691 406.71 770.872 407.607 769.156 407.607C766.894 407.607 765.763 406.203 765.646 404.682L761.2 405.657ZM784.861 399.729C784.978 397.623 786.265 395.985 788.449 395.985C790.945 395.985 791.998 397.662 791.998 399.807V411H797.185V398.91C797.185 394.698 794.923 391.305 790.048 391.305C788.215 391.305 786.109 391.929 784.861 393.411V382.764H779.674V411H784.861V399.729ZM799.996 405.774C799.996 408.777 802.492 411.546 806.587 411.546C809.434 411.546 811.267 410.22 812.242 408.699C812.242 409.44 812.32 410.493 812.437 411H817.195C817.078 410.337 816.961 408.972 816.961 407.958V398.52C816.961 394.659 814.699 391.227 808.615 391.227C803.467 391.227 800.698 394.542 800.386 397.545L804.988 398.52C805.144 396.843 806.392 395.4 808.654 395.4C810.838 395.4 811.891 396.531 811.891 397.896C811.891 398.559 811.54 399.105 810.448 399.261L805.729 399.963C802.531 400.431 799.996 402.342 799.996 405.774ZM807.679 407.685C806.002 407.685 805.183 406.593 805.183 405.462C805.183 403.98 806.236 403.239 807.562 403.044L811.891 402.381V403.239C811.891 406.632 809.863 407.685 807.679 407.685ZM832.642 391.734C832.252 391.695 831.862 391.656 831.433 391.656C829.795 391.656 827.143 392.124 825.973 394.659V391.812H820.942V411H826.129V402.225C826.129 398.091 828.43 396.804 831.082 396.804C831.55 396.804 832.057 396.843 832.642 396.96V391.734ZM853.495 391.812H846.709L840.079 398.949V382.764H834.892V411H840.079V405.93L842.224 403.668L847.294 411H853.651L845.812 399.885L853.495 391.812ZM854.612 407.724C854.612 409.674 856.211 411.273 858.161 411.273C860.15 411.273 861.749 409.674 861.749 407.724C861.749 405.774 860.15 404.175 858.161 404.175C856.211 404.175 854.612 405.774 854.612 407.724ZM873.932 396.024C876.506 396.024 877.715 397.662 878.183 399.261L882.824 397.701C882.005 394.464 879.041 391.227 873.815 391.227C868.238 391.227 863.87 395.478 863.87 401.406C863.87 407.295 868.316 411.585 873.971 411.585C879.08 411.585 882.083 408.309 882.941 405.111L878.378 403.59C877.949 405.072 876.623 406.827 873.971 406.827C871.319 406.827 869.057 404.877 869.057 401.406C869.057 397.935 871.28 396.024 873.932 396.024ZM894.433 406.866C891.898 406.866 889.558 404.994 889.558 401.406C889.558 397.779 891.898 395.946 894.433 395.946C896.968 395.946 899.308 397.779 899.308 401.406C899.308 405.033 896.968 406.866 894.433 406.866ZM894.433 391.227C888.7 391.227 884.371 395.478 884.371 401.406C884.371 407.295 888.7 411.585 894.433 411.585C900.166 411.585 904.495 407.295 904.495 401.406C904.495 395.478 900.166 391.227 894.433 391.227ZM912.638 411V399.768C912.638 397.662 913.964 395.985 916.226 395.985C918.566 395.985 919.619 397.545 919.619 399.612V411H924.767V399.768C924.767 397.701 926.093 395.985 928.316 395.985C930.695 395.985 931.709 397.545 931.709 399.612V411H936.74V398.559C936.74 393.411 933.347 391.266 929.798 391.266C927.263 391.266 925.235 392.124 923.714 394.464C922.739 392.397 920.633 391.266 918.02 391.266C915.914 391.266 913.457 392.28 912.404 394.152V391.812H907.451V411H912.638Z" fill="#1F3C6A"/>
<path fill-rule="evenodd" clip-rule="evenodd" d="M382.67 378.039L378.785 378.039L378.785 370.27C378.785 359.55 370.085 350.849 359.364 350.849C348.644 350.849 339.943 359.55 339.943 370.27L339.943 378.039L336.059 378.039C331.786 378.039 328.29 381.535 328.29 385.807L328.29 424.65C328.29 428.923 331.786 432.419 336.059 432.419L382.67 432.419C386.942 432.419 390.438 428.923 390.438 424.65L390.438 385.807C390.438 381.535 386.942 378.039 382.67 378.039ZM359.364 412.997C363.637 412.997 367.133 409.501 367.133 405.229C367.133 400.956 363.637 397.46 359.364 397.46C355.091 397.46 351.596 400.956 351.596 405.229C351.596 409.501 355.091 412.997 359.364 412.997ZM359.364 358.229C352.722 358.229 347.323 363.628 347.323 370.27L347.323 378.039L371.405 378.039L371.405 370.27C371.405 363.628 366.006 358.229 359.364 358.229Z" fill="white"/>
<path d="M466 424L583 424" stroke="#1BB4B7" stroke-width="7" stroke-linecap="round"/>
<path d="M595 424L682 424" stroke="#FF4C64" stroke-width="7" stroke-linecap="round"/>
<path d="M698 424L940 424" stroke="#178A9E" stroke-width="7" stroke-linecap="round"/>
<path d="M260.432 181.384V170.016H266.536C270.4 170.016 272.752 172.2 272.752 175.728C272.752 179.144 270.4 181.384 266.536 181.384H260.432ZM267.488 188.048C275.328 188.048 280.536 182.896 280.536 175.672C280.536 168.504 275.328 163.296 267.488 163.296H252.648V203H260.376V188.048H267.488ZM300.561 175.336C300.001 175.28 299.441 175.224 298.825 175.224C296.473 175.224 292.665 175.896 290.985 179.536V175.448H283.761V203H291.209V190.4C291.209 184.464 294.513 182.616 298.321 182.616C298.993 182.616 299.721 182.672 300.561 182.84V175.336ZM316.232 197.064C312.592 197.064 309.232 194.376 309.232 189.224C309.232 184.016 312.592 181.384 316.232 181.384C319.872 181.384 323.232 184.016 323.232 189.224C323.232 194.432 319.872 197.064 316.232 197.064ZM316.232 174.608C308 174.608 301.784 180.712 301.784 189.224C301.784 197.68 308 203.84 316.232 203.84C324.464 203.84 330.68 197.68 330.68 189.224C330.68 180.712 324.464 174.608 316.232 174.608ZM344.229 167.216H337.509V171.08C337.509 173.544 336.165 175.448 333.253 175.448H331.853V182.056H336.837V194.88C336.837 200.2 340.197 203.392 345.573 203.392C347.757 203.392 349.101 203 349.773 202.72V196.56C349.381 196.672 348.373 196.784 347.477 196.784C345.349 196.784 344.229 196 344.229 193.592V182.056H349.773V175.448H344.229V167.216ZM366.575 197.064C362.935 197.064 359.575 194.376 359.575 189.224C359.575 184.016 362.935 181.384 366.575 181.384C370.215 181.384 373.575 184.016 373.575 189.224C373.575 194.432 370.215 197.064 366.575 197.064ZM366.575 174.608C358.343 174.608 352.127 180.712 352.127 189.224C352.127 197.68 358.343 203.84 366.575 203.84C374.807 203.84 381.023 197.68 381.023 189.224C381.023 180.712 374.807 174.608 366.575 174.608ZM398.035 181.496C401.731 181.496 403.467 183.848 404.139 186.144L410.803 183.904C409.627 179.256 405.371 174.608 397.867 174.608C389.859 174.608 383.587 180.712 383.587 189.224C383.587 197.68 389.971 203.84 398.091 203.84C405.427 203.84 409.739 199.136 410.971 194.544L404.419 192.36C403.803 194.488 401.899 197.008 398.091 197.008C394.283 197.008 391.035 194.208 391.035 189.224C391.035 184.24 394.227 181.496 398.035 181.496ZM427.473 197.064C423.833 197.064 420.473 194.376 420.473 189.224C420.473 184.016 423.833 181.384 427.473 181.384C431.113 181.384 434.473 184.016 434.473 189.224C434.473 194.432 431.113 197.064 427.473 197.064ZM427.473 174.608C419.241 174.608 413.025 180.712 413.025 189.224C413.025 197.68 419.241 203.84 427.473 203.84C435.705 203.84 441.921 197.68 441.921 189.224C441.921 180.712 435.705 174.608 427.473 174.608ZM453.613 203V162.456H446.165V203H453.613Z" fill="#1F3C6A"/>
<path d="M876.376 195.832V170.464H882.592C889.088 170.464 894.464 174.552 894.464 183.176C894.464 191.8 889.032 195.832 882.536 195.832H876.376ZM882.816 203C894.128 203 902.472 195.72 902.472 183.176C902.472 170.632 894.184 163.296 882.872 163.296H868.648V203H882.816ZM919.802 197.064C916.162 197.064 912.802 194.376 912.802 189.224C912.802 184.016 916.162 181.384 919.802 181.384C923.442 181.384 926.802 184.016 926.802 189.224C926.802 194.432 923.442 197.064 919.802 197.064ZM919.802 174.608C911.57 174.608 905.354 180.712 905.354 189.224C905.354 197.68 911.57 203.84 919.802 203.84C928.034 203.84 934.25 197.68 934.25 189.224C934.25 180.712 928.034 174.608 919.802 174.608ZM945.943 203V186.872C945.943 183.848 947.847 181.44 951.095 181.44C954.455 181.44 955.967 183.68 955.967 186.648V203H963.359V186.872C963.359 183.904 965.263 181.44 968.455 181.44C971.871 181.44 973.327 183.68 973.327 186.648V203H980.551V185.136C980.551 177.744 975.679 174.664 970.583 174.664C966.943 174.664 964.031 175.896 961.847 179.256C960.447 176.288 957.423 174.664 953.671 174.664C950.647 174.664 947.119 176.12 945.607 178.808V175.448H938.495V203H945.943ZM984.574 195.496C984.574 199.808 988.158 203.784 994.038 203.784C998.126 203.784 1000.76 201.88 1002.16 199.696C1002.16 200.76 1002.27 202.272 1002.44 203H1009.27C1009.1 202.048 1008.93 200.088 1008.93 198.632V185.08C1008.93 179.536 1005.69 174.608 996.95 174.608C989.558 174.608 985.582 179.368 985.134 183.68L991.742 185.08C991.966 182.672 993.758 180.6 997.006 180.6C1000.14 180.6 1001.65 182.224 1001.65 184.184C1001.65 185.136 1001.15 185.92 999.582 186.144L992.806 187.152C988.214 187.824 984.574 190.568 984.574 195.496ZM995.606 198.24C993.198 198.24 992.022 196.672 992.022 195.048C992.022 192.92 993.534 191.856 995.438 191.576L1001.65 190.624V191.856C1001.65 196.728 998.742 198.24 995.606 198.24ZM1022.1 203V175.448H1014.65V203H1022.1ZM1013.75 166.432C1013.75 168.896 1015.83 170.968 1018.35 170.968C1020.92 170.968 1022.94 168.896 1022.94 166.432C1022.94 163.856 1020.92 161.784 1018.35 161.784C1015.83 161.784 1013.75 163.856 1013.75 166.432ZM1035.46 187.152C1035.46 183.96 1037.36 181.44 1040.61 181.44C1044.19 181.44 1045.71 183.848 1045.71 186.928V203H1053.15V185.64C1053.15 179.592 1050.02 174.72 1043.19 174.72C1040.22 174.72 1036.91 176.008 1035.23 178.864V175.448H1028.01V203H1035.46V187.152Z" fill="#1F3C6A"/>
<path d="M551.416 172.76C550.52 168.28 546.824 162.456 537.192 162.456C529.688 162.456 523.36 167.832 523.36 174.888C523.36 180.88 527.448 184.968 533.776 186.256L539.32 187.376C542.4 187.992 544.136 189.784 544.136 192.08C544.136 194.88 541.84 196.952 537.696 196.952C532.096 196.952 529.352 193.424 529.016 189.504L521.848 191.408C522.464 197.064 527.112 203.84 537.64 203.84C546.88 203.84 551.976 197.68 551.976 191.576C551.976 185.976 548.112 181.272 540.888 179.872L535.344 178.808C532.432 178.248 531.032 176.512 531.032 174.328C531.032 171.696 533.496 169.288 537.248 169.288C542.288 169.288 544.08 172.704 544.472 174.888L551.416 172.76ZM574.121 203H581.233C581.121 202.048 580.953 200.144 580.953 198.016V175.448H573.505V191.464C573.505 194.656 571.601 196.896 568.297 196.896C564.825 196.896 563.257 194.432 563.257 191.352V175.448H555.809V192.864C555.809 198.856 559.617 203.728 566.281 203.728C569.193 203.728 572.385 202.608 573.897 200.032C573.897 201.152 574.009 202.44 574.121 203ZM594.117 203V199.64C595.573 201.992 598.485 203.672 602.293 203.672C610.133 203.672 615.285 197.456 615.285 189.112C615.285 180.936 610.637 174.72 602.573 174.72C598.485 174.72 595.461 176.512 594.229 178.472V162.456H586.893V203H594.117ZM607.837 189.168C607.837 194.208 604.813 197.008 601.005 197.008C597.253 197.008 594.117 194.152 594.117 189.168C594.117 184.128 597.253 181.384 601.005 181.384C604.813 181.384 607.837 184.128 607.837 189.168ZM646.268 162.456H638.932V178.192C638.148 176.736 635.908 174.776 631.148 174.776C623.364 174.776 617.932 181.104 617.932 189.168C617.932 197.512 623.532 203.672 631.372 203.672C635.068 203.672 637.868 201.992 639.1 199.808C639.1 201.096 639.268 202.44 639.38 203H646.492C646.38 201.88 646.268 199.864 646.268 198.016V162.456ZM625.436 189.168C625.436 184.24 628.46 181.44 632.268 181.44C636.076 181.44 639.044 184.184 639.044 189.112C639.044 194.096 636.076 197.008 632.268 197.008C628.348 197.008 625.436 194.096 625.436 189.168ZM664.989 197.064C661.349 197.064 657.989 194.376 657.989 189.224C657.989 184.016 661.349 181.384 664.989 181.384C668.629 181.384 671.989 184.016 671.989 189.224C671.989 194.432 668.629 197.064 664.989 197.064ZM664.989 174.608C656.757 174.608 650.541 180.712 650.541 189.224C650.541 197.68 656.757 203.84 664.989 203.84C673.221 203.84 679.437 197.68 679.437 189.224C679.437 180.712 673.221 174.608 664.989 174.608ZM691.129 203V186.872C691.129 183.848 693.033 181.44 696.281 181.44C699.641 181.44 701.153 183.68 701.153 186.648V203H708.545V186.872C708.545 183.904 710.449 181.44 713.641 181.44C717.057 181.44 718.513 183.68 718.513 186.648V203H725.737V185.136C725.737 177.744 720.865 174.664 715.769 174.664C712.129 174.664 709.217 175.896 707.033 179.256C705.633 176.288 702.609 174.664 698.857 174.664C695.833 174.664 692.305 176.12 690.793 178.808V175.448H683.681V203H691.129ZM729.76 195.496C729.76 199.808 733.344 203.784 739.224 203.784C743.312 203.784 745.944 201.88 747.344 199.696C747.344 200.76 747.456 202.272 747.624 203H754.456C754.288 202.048 754.12 200.088 754.12 198.632V185.08C754.12 179.536 750.872 174.608 742.136 174.608C734.744 174.608 730.768 179.368 730.32 183.68L736.928 185.08C737.152 182.672 738.944 180.6 742.192 180.6C745.328 180.6 746.84 182.224 746.84 184.184C746.84 185.136 746.336 185.92 744.768 186.144L737.992 187.152C733.4 187.824 729.76 190.568 729.76 195.496ZM740.792 198.24C738.384 198.24 737.208 196.672 737.208 195.048C737.208 192.92 738.72 191.856 740.624 191.576L746.84 190.624V191.856C746.84 196.728 743.928 198.24 740.792 198.24ZM767.285 203V175.448H759.837V203H767.285ZM758.941 166.432C758.941 168.896 761.013 170.968 763.533 170.968C766.109 170.968 768.125 168.896 768.125 166.432C768.125 163.856 766.109 161.784 763.533 161.784C761.013 161.784 758.941 163.856 758.941 166.432ZM780.644 187.152C780.644 183.96 782.548 181.44 785.796 181.44C789.38 181.44 790.892 183.848 790.892 186.928V203H798.34V185.64C798.34 179.592 795.204 174.72 788.372 174.72C785.404 174.72 782.1 176.008 780.42 178.864V175.448H773.196V203H780.644V187.152Z" fill="#1F3C6A"/>
<path d="M374.929 217.41C374.052 216.345 372.476 216.193 371.41 217.071C370.345 217.948 370.193 219.524 371.071 220.59L374.929 217.41ZM504 378L499.243 349.527L476.963 367.883L504 378ZM371.071 220.59L487.763 362.224L491.622 359.045L374.929 217.41L371.071 220.59Z" fill="#1BB4B7"/>
<path d="M665.573 220.418C665.573 219.037 664.454 217.918 663.073 217.918C661.692 217.918 660.573 219.037 660.573 220.418L665.573 220.418ZM663.073 377.418L677.507 352.418L648.639 352.418L663.073 377.418ZM660.573 220.418L660.573 354.918L665.573 354.918L665.573 220.418L660.573 220.418Z" fill="#FF4C64"/>
<path d="M952.085 221.775C952.83 220.612 952.49 219.066 951.327 218.321C950.164 217.577 948.618 217.917 947.874 219.08L952.085 221.775ZM847.907 379.927L873.54 366.65L849.225 351.09L847.907 379.927ZM947.874 219.08L857.929 359.628L862.141 362.323L952.085 221.775L947.874 219.08Z" fill="#178A9E"/>
</svg>
